<svg width="15" height="21" viewBox="0 0 15 21" fill="none" xmlns="http://www.w3.org/2000/svg">
<path d="M-0.000593229 1.48788L-0.000594016 19.4879C-2.2773e-05 19.6701 0.0502406 19.8488 0.144784 20.0046C0.239328 20.1604 0.374571 20.2874 0.535958 20.3721C0.697346 20.4567 0.878766 20.4958 1.06069 20.485C1.24261 20.4742 1.41815 20.414 1.56841 20.3109L14.5684 11.3109C15.1074 10.9379 15.1074 10.0399 14.5684 9.66588L1.56841 0.665878C1.41846 0.561703 1.24284 0.500612 1.06061 0.489243C0.878386 0.477874 0.696528 0.516662 0.5348 0.601392C0.373071 0.686122 0.237653 0.813554 0.143263 0.969842C0.0488729 1.12613 -0.000881231 1.3053 -0.000593229 1.48788Z" fill="#FFB309"/>
</svg>
