<svg width="120" height="120" viewBox="0 0 120 120" fill="none" xmlns="http://www.w3.org/2000/svg">
<path d="M8 4C8 6.20914 6.20914 8 4 8C1.79086 8 0 6.20914 0 4C0 1.79086 1.79086 0 4 0C6.20914 0 8 1.79086 8 4Z" fill="#05135E"/>
<path d="M8 32C8 34.2091 6.20914 36 4 36C1.79086 36 0 34.2091 0 32C0 29.7909 1.79086 28 4 28C6.20914 28 8 29.7909 8 32Z" fill="#05135E"/>
<path d="M8 60C8 62.2091 6.20914 64 4 64C1.79086 64 0 62.2091 0 60C0 57.7909 1.79086 56 4 56C6.20914 56 8 57.7909 8 60Z" fill="#05135E"/>
<path d="M8 88C8 90.2091 6.20914 92 4 92C1.79086 92 0 90.2091 0 88C0 85.7909 1.79086 84 4 84C6.20914 84 8 85.7909 8 88Z" fill="#05135E"/>
<path d="M8 116C8 118.209 6.20914 120 4 120C1.79086 120 0 118.209 0 116C0 113.791 1.79086 112 4 112C6.20914 112 8 113.791 8 116Z" fill="#05135E"/>
<path d="M36 4C36 6.20914 34.2091 8 32 8C29.7909 8 28 6.20914 28 4C28 1.79086 29.7909 0 32 0C34.2091 0 36 1.79086 36 4Z" fill="#05135E"/>
<path d="M36 32C36 34.2091 34.2091 36 32 36C29.7909 36 28 34.2091 28 32C28 29.7909 29.7909 28 32 28C34.2091 28 36 29.7909 36 32Z" fill="#05135E"/>
<path d="M36 60C36 62.2091 34.2091 64 32 64C29.7909 64 28 62.2091 28 60C28 57.7909 29.7909 56 32 56C34.2091 56 36 57.7909 36 60Z" fill="#05135E"/>
<path d="M36 88C36 90.2091 34.2091 92 32 92C29.7909 92 28 90.2091 28 88C28 85.7909 29.7909 84 32 84C34.2091 84 36 85.7909 36 88Z" fill="#05135E"/>
<path d="M36 116C36 118.209 34.2091 120 32 120C29.7909 120 28 118.209 28 116C28 113.791 29.7909 112 32 112C34.2091 112 36 113.791 36 116Z" fill="#05135E"/>
<path d="M64 4C64 6.20914 62.2091 8 60 8C57.7909 8 56 6.20914 56 4C56 1.79086 57.7909 0 60 0C62.2091 0 64 1.79086 64 4Z" fill="#05135E"/>
<path d="M64 32C64 34.2091 62.2091 36 60 36C57.7909 36 56 34.2091 56 32C56 29.7909 57.7909 28 60 28C62.2091 28 64 29.7909 64 32Z" fill="#05135E"/>
<path d="M64 60C64 62.2091 62.2091 64 60 64C57.7909 64 56 62.2091 56 60C56 57.7909 57.7909 56 60 56C62.2091 56 64 57.7909 64 60Z" fill="#05135E"/>
<path d="M64 88C64 90.2091 62.2091 92 60 92C57.7909 92 56 90.2091 56 88C56 85.7909 57.7909 84 60 84C62.2091 84 64 85.7909 64 88Z" fill="#05135E"/>
<path d="M64 116C64 118.209 62.2091 120 60 120C57.7909 120 56 118.209 56 116C56 113.791 57.7909 112 60 112C62.2091 112 64 113.791 64 116Z" fill="#05135E"/>
<path d="M92 4C92 6.20914 90.2091 8 88 8C85.7909 8 84 6.20914 84 4C84 1.79086 85.7909 0 88 0C90.2091 0 92 1.79086 92 4Z" fill="#05135E"/>
<path d="M92 32C92 34.2091 90.2091 36 88 36C85.7909 36 84 34.2091 84 32C84 29.7909 85.7909 28 88 28C90.2091 28 92 29.7909 92 32Z" fill="#05135E"/>
<path d="M92 60C92 62.2091 90.2091 64 88 64C85.7909 64 84 62.2091 84 60C84 57.7909 85.7909 56 88 56C90.2091 56 92 57.7909 92 60Z" fill="#05135E"/>
<path d="M92 88C92 90.2091 90.2091 92 88 92C85.7909 92 84 90.2091 84 88C84 85.7909 85.7909 84 88 84C90.2091 84 92 85.7909 92 88Z" fill="#05135E"/>
<path d="M92 116C92 118.209 90.2091 120 88 120C85.7909 120 84 118.209 84 116C84 113.791 85.7909 112 88 112C90.2091 112 92 113.791 92 116Z" fill="#05135E"/>
<path d="M120 4C120 6.20914 118.209 8 116 8C113.791 8 112 6.20914 112 4C112 1.79086 113.791 0 116 0C118.209 0 120 1.79086 120 4Z" fill="#05135E"/>
<path d="M120 32C120 34.2091 118.209 36 116 36C113.791 36 112 34.2091 112 32C112 29.7909 113.791 28 116 28C118.209 28 120 29.7909 120 32Z" fill="#05135E"/>
<path d="M120 60C120 62.2091 118.209 64 116 64C113.791 64 112 62.2091 112 60C112 57.7909 113.791 56 116 56C118.209 56 120 57.7909 120 60Z" fill="#05135E"/>
<path d="M120 88C120 90.2091 118.209 92 116 92C113.791 92 112 90.2091 112 88C112 85.7909 113.791 84 116 84C118.209 84 120 85.7909 120 88Z" fill="#05135E"/>
<path d="M120 116C120 118.209 118.209 120 116 120C113.791 120 112 118.209 112 116C112 113.791 113.791 112 116 112C118.209 112 120 113.791 120 116Z" fill="#05135E"/>
</svg>
