<svg width="32" height="32" viewBox="0 0 32 32" fill="none" xmlns="http://www.w3.org/2000/svg">
<rect width="32" height="32" rx="3" fill="#FFB309"/>
<path d="M11.253 22.494L11.977 22.917C13.198 23.6291 14.5866 24.0029 16 24C17.5823 24 19.129 23.5308 20.4446 22.6518C21.7602 21.7727 22.7855 20.5233 23.3911 19.0615C23.9966 17.5997 24.155 15.9911 23.8463 14.4393C23.5376 12.8874 22.7757 11.462 21.6569 10.3431C20.538 9.22433 19.1126 8.4624 17.5607 8.15372C16.0089 7.84504 14.4004 8.00346 12.9385 8.60896C11.4767 9.21447 10.2273 10.2398 9.34826 11.5554C8.46921 12.871 8.00001 14.4177 8.00001 16C8.00001 17.436 8.37701 18.813 9.08401 20.024L9.50601 20.748L8.85301 23.149L11.253 22.494ZM6.00401 26L7.35601 21.032C6.46515 19.5049 5.99711 17.768 6.00001 16C6.00001 10.477 10.477 6 16 6C21.523 6 26 10.477 26 16C26 21.523 21.523 26 16 26C14.2328 26.0029 12.4967 25.5352 10.97 24.645L6.00401 26ZM12.391 11.308C12.525 11.298 12.66 11.298 12.794 11.304C12.848 11.308 12.902 11.314 12.956 11.32C13.115 11.338 13.29 11.435 13.349 11.569C13.647 12.245 13.937 12.926 14.217 13.609C14.279 13.761 14.242 13.956 14.124 14.146C14.0429 14.2745 13.9551 14.3986 13.861 14.518C13.748 14.663 13.505 14.929 13.505 14.929C13.505 14.929 13.406 15.047 13.444 15.194C13.458 15.25 13.504 15.331 13.546 15.399L13.605 15.494C13.861 15.921 14.205 16.354 14.625 16.762C14.745 16.878 14.862 16.997 14.988 17.108C15.456 17.521 15.986 17.858 16.558 18.108L16.563 18.11C16.648 18.147 16.691 18.167 16.815 18.22C16.877 18.246 16.941 18.269 17.006 18.286C17.0732 18.3031 17.1439 18.2999 17.2093 18.2767C17.2746 18.2536 17.3316 18.2116 17.373 18.156C18.097 17.279 18.163 17.222 18.169 17.222V17.224C18.2193 17.1771 18.2791 17.1415 18.3443 17.1196C18.4095 17.0977 18.4786 17.09 18.547 17.097C18.607 17.101 18.668 17.112 18.724 17.137C19.255 17.38 20.124 17.759 20.124 17.759L20.706 18.02C20.804 18.067 20.893 18.178 20.896 18.285C20.9 18.352 20.906 18.46 20.883 18.658C20.851 18.917 20.773 19.228 20.695 19.391C20.6416 19.5022 20.5707 19.6042 20.485 19.693C20.3841 19.7989 20.2736 19.8954 20.155 19.981C20.114 20.0119 20.0723 20.0419 20.03 20.071C19.9056 20.1499 19.7778 20.2233 19.647 20.291C19.3895 20.4278 19.1052 20.5063 18.814 20.521C18.629 20.531 18.444 20.545 18.258 20.535C18.25 20.535 17.69 20.448 17.69 20.448C16.2683 20.074 14.9534 19.3735 13.85 18.402C13.624 18.203 13.415 17.989 13.201 17.776C12.311 16.891 11.639 15.936 11.231 15.034C11.0222 14.5913 10.9094 14.1094 10.9 13.62C10.8959 13.0129 11.0944 12.4217 11.464 11.94C11.537 11.846 11.606 11.748 11.725 11.635C11.852 11.515 11.932 11.451 12.019 11.407C12.1347 11.349 12.2609 11.315 12.39 11.307L12.391 11.308Z" fill="#05135E"/>
</svg>
