<svg width="156" height="30" viewBox="0 0 156 30" fill="none" xmlns="http://www.w3.org/2000/svg">
<g clip-path="url(#clip0_557_284)">
<path d="M16.4482 1.56274L22.6038 14.891L28.6157 1.56274H44.5855V5.45014H39.7462V21.1386H44.5855V25.026H29.5144V21.1386H32.6945V6.14432L24.5174 25.0065L20.0376 25.0343L11.4014 6.14432V21.1386H14.7198V25.026H0.754883V21.1386H5.59423V5.45014H0.754883V1.56274H16.4482Z" fill="#202754"/>
<path d="M72.6541 4.06174V1.5627H79.0144V9.754H72.9998C71.2631 5.48619 66.4597 3.95622 62.2481 5.34458C57.4392 6.93008 57.1986 15.1297 59.0071 18.9449C61.4296 24.0569 72.007 23.4127 71.6862 16.6958H79.844C79.1637 22.899 74.1695 25.187 68.5725 25.7173C57.8098 26.7364 48.3136 23.6126 50.1332 10.8119C51.5573 0.799099 62.6602 -1.37229 70.5358 2.64839L72.6541 4.06174Z" fill="#202754"/>
<path d="M108.188 4.06193V1.56289H114.549V9.7542H108.534C107.021 6.17224 103.897 4.66726 100.094 4.88939C94.9921 5.1865 93.5735 9.01004 93.5597 13.5722C93.5458 18.2398 94.9368 21.9162 100.094 22.255C103.885 22.5049 107.234 20.9305 107.22 16.696H115.516C114.452 22.9936 109.825 25.2011 103.968 25.7175C94.0132 26.6005 84.8184 24.2264 85.5125 12.3227C86.1707 1.02421 97.6828 -1.71641 106.432 2.8374L108.188 4.05916V4.06193Z" fill="#202754"/>
<path d="M91.3198 25.5842C92.7357 25.9535 94.1239 26.42 95.5784 26.6532C100.799 27.4946 108.932 27.4307 113.169 23.8488C115.257 22.0828 116.551 19.4505 116.625 16.6987L119.366 18.4564C119.136 23.8404 114.798 27.5335 109.906 28.9052C103.645 30.66 96.4246 29.7187 91.3198 25.587V25.5842Z" fill="#202754"/>
<path d="M55.5088 25.4454C56.2084 25.6009 56.8638 25.9119 57.5524 26.0979C63.1632 27.614 72.9636 27.7973 77.6315 23.8488C79.7166 22.0856 80.9803 19.4449 81.0882 16.6987L83.8314 18.4564C83.5217 24.4097 78.3864 28.1804 72.936 29.2661C66.8328 30.4823 60.42 29.3605 55.5088 25.4454Z" fill="#202754"/>
<path d="M48.4572 28.9136H32.7639L29.5146 26.2757H45.6227C45.6366 26.2757 45.8301 26.0813 45.8301 26.0674V21.2776C46.1205 21.6608 48.4572 23.7961 48.4572 23.9849V28.9136Z" fill="#202754"/>
<path d="M71.6835 10.1706C68.7273 8.49902 63.263 6.85242 62.3228 11.5312C61.7006 14.6217 62.4113 18.1037 63.5257 20.9998C59.5243 20.0335 59.1565 15.8129 59.3722 12.317C59.563 9.23207 60.5779 6.68582 63.8907 6.1638C67.0322 5.66677 70.7737 6.81355 71.6835 10.1734V10.1706Z" fill="#202754"/>
<path d="M107.218 10.1706C104.878 8.69057 99.4529 7.13006 98.1255 10.5482C96.9585 13.5498 97.9817 18.0731 99.0602 20.9997C96.9337 20.3972 95.7501 19.1505 95.2302 17.0013C94.6495 14.5939 94.6854 10.3177 96.0405 8.17965C98.3274 4.5727 106.269 5.70005 107.218 10.1706Z" fill="#202754"/>
<path d="M48.4571 9.3377H43.6178V19.8892H40.9907V6.69983H45.6227C45.6365 6.69983 45.8301 6.50546 45.8301 6.49157V1.84058C46.043 1.87112 46.0872 2.10436 46.1785 2.25431C46.4744 2.73468 48.4571 6.11672 48.4571 6.35274V9.3377Z" fill="#202754"/>
<path d="M15.9642 21.2774C16.0527 21.1747 17.1145 21.9494 17.2113 22.0743C17.3358 22.2354 18.453 24.6678 18.453 24.8177V28.9134H4.83367L0.893066 26.2755H15.9642V21.2774Z" fill="#202754"/>
<path d="M118.558 13.5027H111.576C111.366 13.5027 108.849 11.1952 108.465 10.8648H115.793V1.70166C116.034 1.64057 116.07 1.80162 116.208 1.90991C117.015 2.52912 117.751 3.60371 118.558 4.27012V13.5027Z" fill="#202754"/>
<path d="M72.9304 10.8648H80.2586V1.70166C80.4992 1.64057 80.5351 1.80162 80.6734 1.90991C80.9693 2.1376 83.0239 4.2368 83.0239 4.40895V13.2944C83.0239 13.3083 82.8303 13.5027 82.8165 13.5027H76.0414C75.8368 13.5027 73.3037 11.2064 72.9304 10.8648Z" fill="#202754"/>
<path d="M31.0355 19.8891H28.2701V26.2061C28.2701 26.4477 27.1004 28.3553 27.0395 28.8273C26.9206 28.9856 24.4705 28.955 24.1276 28.8384C23.3451 28.5691 21.6223 26.7864 20.8037 26.2755H25.1591L31.4503 12.1143V19.1255C31.4503 19.2365 30.994 19.6392 31.0355 19.8891Z" fill="#202754"/>
<path d="M22.7369 11.559L18.0386 1.70166L22.6733 5.72512C22.9581 6.09165 24.1306 8.32412 24.0642 8.64622C23.9122 9.37372 22.8696 10.6982 22.7369 11.5618V11.559Z" fill="#202754"/>
<path d="M15.2731 19.8892H12.646V11.9756L15.2731 17.4596V19.8892Z" fill="#202754"/>
<path d="M4.48801 6.69971V9.19875L4.03173 9.03215L0.893066 6.69971H4.48801Z" fill="#232A56"/>
<path d="M151.602 11.3535C150.872 1.42395 141.525 0.343813 133.464 0.910263C126.382 1.40729 121.65 4.30896 121.18 11.9005C120.53 22.3881 126.315 25.6813 135.906 25.8646C146.251 26.0645 152.431 22.6075 151.602 11.3535ZM129.208 13.7109C129.144 8.73227 130.414 4.52277 136.094 4.37838C141.237 4.24787 143.27 7.02736 143.585 11.9088C143.969 17.8593 142.41 22.8047 135.499 22.2493C130.563 21.8522 129.263 18.1426 129.208 13.7109Z" fill="#202754"/>
<path d="M151.118 4.61996C150.941 4.46169 149.511 3.25382 149.392 3.36766C151.507 5.689 152.639 8.32687 152.846 11.4896C153.725 24.7456 145.064 27.6722 133.56 26.967C131.279 26.8281 129.034 26.1978 126.854 25.5814C132.703 30.0658 140.695 30.9377 147.451 28.0054C156.692 23.9931 158.656 11.3118 151.115 4.61996H151.118Z" fill="#202754"/>
<path d="M141.787 9.33767C138.997 8.26586 134.514 6.98857 133.533 10.9759C132.717 14.2886 133.569 17.84 134.597 20.9999C130.784 20.1335 130.256 15.6297 130.452 12.3226C130.712 7.91877 132.429 5.27534 137.164 5.58078C139.52 5.7335 141.204 7.01356 141.787 9.3349V9.33767Z" fill="#202754"/>
</g>
<defs>
<clipPath id="clip0_557_284">
<rect width="155" height="29" fill="white" transform="translate(0.754883 0.743652)"/>
</clipPath>
</defs>
</svg>
