<svg width="109" height="21" viewBox="0 0 109 21" fill="none" xmlns="http://www.w3.org/2000/svg">
<g clip-path="url(#clip0_544_47)">
<path d="M11.0359 0.573242L15.3647 9.9076L19.5924 0.573242H30.8228V3.29576H27.4197V14.2831H30.8228V17.0056H20.2244V14.2831H22.4608V3.78193L16.7104 16.992L13.5601 17.0114L7.48693 3.78193V14.2831H9.82052V17.0056H0V14.2831H3.40315V3.29576H0V0.573242H11.0359Z" fill="white"/>
<path d="M50.5609 2.32388V0.573685H55.0336V6.31043H50.804C49.5828 3.32149 46.2049 2.24998 43.2432 3.22231C39.8614 4.33271 39.6922 10.0753 40.964 12.7472C42.6676 16.3274 50.1059 15.8762 49.8803 11.1721H55.617C55.1386 15.5164 51.6266 17.1188 47.6906 17.4903C40.122 18.204 33.444 16.0162 34.7236 7.05134C35.7251 0.0389039 43.5329 -1.48182 49.0713 1.33405L50.5609 2.32388Z" fill="white"/>
<path d="M75.5503 2.32387V0.573677H80.023V6.31042H75.7934C74.7297 3.80181 72.5322 2.7478 69.8583 2.90338C66.2704 3.11146 65.2728 5.78925 65.2631 8.98432C65.2533 12.2533 66.2315 14.828 69.8583 15.0653C72.5244 15.2403 74.8794 14.1377 74.8697 11.1721H80.7036C79.9549 15.5825 76.7015 17.1285 72.5827 17.4903C65.582 18.1087 59.116 16.446 59.6041 8.10923C60.0669 0.196414 68.1625 -1.72296 74.3154 1.46628L75.5503 2.32192V2.32387Z" fill="white"/>
<path d="M63.6875 17.3969C64.6832 17.6555 65.6594 17.9822 66.6823 18.1456C70.3538 18.7348 76.073 18.6901 79.0522 16.1815C80.5205 14.9447 81.4306 13.1012 81.4831 11.174L83.4102 12.405C83.2488 16.1757 80.1976 18.7621 76.7575 19.7227C72.3548 20.9517 67.2773 20.2925 63.6875 17.3989V17.3969Z" fill="white"/>
<path d="M38.5049 17.2997C38.9969 17.4086 39.4578 17.6264 39.942 17.7567C43.8877 18.8185 50.7796 18.9468 54.0621 16.1815C55.5284 14.9466 56.4171 13.0973 56.493 11.174L58.4221 12.405C58.2043 16.5743 54.593 19.2152 50.7601 19.9755C46.4683 20.8273 41.9586 20.0416 38.5049 17.2997Z" fill="white"/>
<path d="M33.5455 19.7286H22.5096L20.2246 17.8811H31.5522C31.562 17.8811 31.6981 17.745 31.6981 17.7353V14.3808C31.9023 14.6491 33.5455 16.1446 33.5455 16.2768V19.7286Z" fill="white"/>
<path d="M49.8788 6.6025C47.8 5.43182 43.9574 4.27864 43.2962 7.55538C42.8586 9.71979 43.3584 12.1584 44.1421 14.1867C41.3282 13.5099 41.0695 10.554 41.2212 8.10572C41.3554 5.94521 42.0691 4.16196 44.3988 3.79636C46.6079 3.44827 49.239 4.25141 49.8788 6.60445V6.6025Z" fill="white"/>
<path d="M74.8673 6.6018C73.2221 5.5653 69.4067 4.4724 68.4732 6.86627C67.6526 8.96845 68.3721 12.1363 69.1305 14.186C67.6351 13.764 66.8028 12.8908 66.4372 11.3857C66.0288 9.69964 66.0541 6.70486 67.007 5.20748C68.6152 2.68137 74.2002 3.4709 74.8673 6.6018Z" fill="white"/>
<path d="M33.5455 6.01913H30.1423V13.4088H28.2949V4.17171H31.5522C31.5619 4.17171 31.6981 4.03558 31.6981 4.02586V0.768555C31.8478 0.789946 31.8789 0.953297 31.9431 1.05831C32.1512 1.39473 33.5455 3.76333 33.5455 3.92862V6.01913Z" fill="white"/>
<path d="M10.696 14.3807C10.7583 14.3088 11.505 14.8514 11.5731 14.9389C11.6606 15.0517 12.4462 16.7552 12.4462 16.8602V19.7286H2.86879L0.0976562 17.8811H10.696V14.3807Z" fill="white"/>
<path d="M82.8421 8.93533H77.9319C77.7841 8.93533 76.0144 7.31932 75.7441 7.0879H80.8975V0.670535C81.0667 0.627752 81.0919 0.740542 81.1892 0.816384C81.757 1.25004 82.2743 2.00262 82.8421 2.46934V8.93533Z" fill="white"/>
<path d="M50.7559 7.0879H55.9092V0.670535C56.0784 0.627752 56.1037 0.740542 56.2009 0.816384C56.409 0.975846 57.8539 2.44601 57.8539 2.56658V8.78948C57.8539 8.7992 57.7177 8.93533 57.708 8.93533H52.9436C52.7997 8.93533 51.0184 7.3271 50.7559 7.0879Z" fill="white"/>
<path d="M21.2939 13.4089H19.3492V17.833C19.3492 18.0022 18.5266 19.3382 18.4838 19.6688C18.4002 19.7796 16.6772 19.7582 16.4361 19.6765C15.8858 19.4879 14.6743 18.2394 14.0986 17.8816H17.1615L21.5856 7.96387V12.8741C21.5856 12.9519 21.2647 13.2339 21.2939 13.4089Z" fill="white"/>
<path d="M15.4583 7.57444L12.1543 0.670906L15.4135 3.48871C15.6138 3.74541 16.4384 5.30891 16.3917 5.53449C16.2847 6.04399 15.5516 6.9716 15.4583 7.57638V7.57444Z" fill="white"/>
<path d="M10.2097 13.4084H8.3623V7.86614L10.2097 11.7068V13.4084Z" fill="white"/>
<path d="M2.62571 4.1709V5.92109L2.30484 5.80441L0.0976562 4.1709H2.62571Z" fill="white"/>
<path d="M106.079 7.43054C105.566 0.476449 98.9931 -0.280023 93.3244 0.116688C88.3441 0.464781 85.0168 2.49695 84.6862 7.81364C84.2292 15.1586 88.2975 17.465 95.0415 17.5933C102.316 17.7333 106.663 15.3122 106.079 7.43054ZM90.3316 9.08156C90.2868 5.59479 91.1794 2.64669 95.1738 2.54556C98.7908 2.45417 100.22 4.40077 100.442 7.81948C100.712 11.9869 99.6154 15.4503 94.7557 15.0614C91.2844 14.7833 90.3705 12.1852 90.3316 9.08156Z" fill="white"/>
<path d="M105.739 2.71476C105.615 2.60391 104.609 1.75799 104.526 1.83772C106.013 3.46345 106.809 5.31088 106.955 7.52584C107.573 16.8096 101.482 18.8593 93.3926 18.3654C91.7882 18.2681 90.2091 17.8267 88.6768 17.395C92.7897 20.5356 98.4098 21.1462 103.161 19.0927C109.66 16.2826 111.04 7.40138 105.737 2.71476H105.739Z" fill="white"/>
<path d="M99.1775 6.01871C97.2153 5.26808 94.063 4.37353 93.3727 7.16606C92.799 9.48604 93.398 11.9733 94.1214 14.1863C91.4397 13.5795 91.0683 10.4253 91.2063 8.10922C91.3891 5.02499 92.5968 3.17368 95.926 3.38759C97.5829 3.49455 98.7672 4.39104 99.1775 6.01677V6.01871Z" fill="white"/>
</g>
<defs>
<clipPath id="clip0_544_47">
<rect width="109" height="20.31" fill="white"/>
</clipPath>
</defs>
</svg>
